<svg width="69" height="65" viewBox="0 0 69 65" fill="none" xmlns="http://www.w3.org/2000/svg">
<path d="M51.282 47.308C50.6567 45.9745 50.2116 44.5635 49.9584 43.1125C49.5538 40.8358 48.6975 38.663 47.4402 36.7223C46.1827 34.7817 44.5497 33.1122 42.6371 31.8124C40.964 30.6782 39.1049 29.8465 37.1441 29.3552C38.5741 29.7033 39.8197 30.579 40.6312 31.8068C41.4429 33.0345 41.7605 34.5236 41.5205 35.9757C41.1094 39.146 41.5878 42.3681 42.9023 45.2821C44.2167 48.1961 46.3155 50.6873 48.964 52.4774C51.993 54.5233 55.591 55.5597 59.2442 55.4384C55.7419 53.7138 52.933 50.8457 51.282 47.308Z" fill="#1B5280"/>
<path d="M52.4474 46.1745C51.4604 45.0812 50.6232 43.8614 49.958 42.5473C48.9071 40.4874 47.4544 38.6588 45.6859 37.1691C43.9172 35.6794 41.8683 34.5587 39.6598 33.8731C37.7287 33.276 35.7078 33.0226 33.689 33.1243C35.1584 33.0404 36.6052 33.5147 37.7395 34.4526C38.8738 35.3903 39.6119 36.722 39.8057 38.181C40.3369 41.3334 41.7341 44.276 43.8411 46.68C45.9481 49.0842 48.6822 50.8551 51.7376 51.7952C55.2314 52.8689 58.9753 52.8111 62.4344 51.6299C58.5814 51.0015 55.0582 49.077 52.4474 46.1745Z" fill="#060708"/>
<path d="M24.079 31.2158C23.8753 33.2284 24.0244 35.2613 24.5196 37.2228C24.1558 35.7971 24.3394 34.2867 25.0343 32.9898C25.7291 31.6927 26.8849 30.7032 28.2733 30.2163C31.26 29.0702 33.87 27.1175 35.8125 24.5757C37.7549 22.0339 38.9537 19.0028 39.2753 15.82C39.6448 12.1795 38.8479 8.51583 36.9995 5.35781C37.1301 9.2762 35.919 13.1218 33.5665 16.2584C32.6723 17.4404 31.6259 18.4992 30.4545 19.4074C28.642 20.8434 27.1358 22.6283 26.0248 24.6565C24.9139 26.6846 24.2209 28.9149 23.9867 31.2155L24.079 31.2158Z" fill="#1B5280"/>
<path d="M27.514 33.3188C27.9629 35.2913 28.7528 37.1703 29.8478 38.8714C29.0482 37.6362 28.7404 36.1463 28.9853 34.6954C29.23 33.2444 30.0097 31.9379 31.1703 31.0336C33.6354 28.9945 35.486 26.3113 36.5162 23.2826C37.5464 20.2539 37.7156 16.9988 37.005 13.8797C36.1939 10.3115 34.2699 7.09351 31.5107 4.69012C32.8844 8.36216 32.9633 12.3932 31.7344 16.1163C31.2639 17.5219 30.6099 18.8592 29.7895 20.0936C28.5298 22.0327 27.6716 24.2049 27.2657 26.4815C26.8598 28.758 26.9145 31.0929 27.4264 33.348L27.514 33.3188Z" fill="#060708"/>
<path d="M32.9078 34.2687C32.7709 35.7346 32.0848 37.0947 30.9872 38.0759C29.8896 39.0572 28.4615 39.5872 26.9894 39.5597C23.787 39.6056 20.6603 40.5411 17.9589 42.2616C15.2574 43.9821 13.0877 46.42 11.692 49.3028C10.1048 52.6001 9.60586 56.3164 10.2674 59.9156C11.4868 56.1889 13.9408 52.9894 17.224 50.8457C18.4596 50.0455 19.7899 49.4023 21.1844 48.931C23.3758 48.2021 25.3989 47.0416 27.1344 45.5181C28.8698 43.9945 30.2825 42.1388 31.2889 40.0603C32.1683 38.2375 32.7223 36.2751 32.9259 34.2616L32.9078 34.2687Z" fill="#1B5280"/>
<path d="M36.8008 39.2701C36.1392 40.5855 35.0049 41.6022 33.6252 42.1161C32.2456 42.6301 30.7225 42.6035 29.3616 42.0416C26.3625 40.9177 23.1099 40.6498 19.9673 41.268C16.8247 41.8862 13.9159 43.3662 11.566 45.5424C8.88665 48.035 7.06819 51.3141 6.37309 54.907C8.86633 51.8806 12.3172 49.7949 16.1558 48.9946C17.598 48.6994 19.0712 48.5851 20.5416 48.6542C22.8479 48.7737 25.1547 48.43 27.326 47.6434C29.4971 46.8566 31.4888 45.643 33.1833 44.074C34.6663 42.6968 35.8971 41.0711 36.8202 39.2701H36.8008Z" fill="#060708"/>
</svg>
