<svg width="57" height="57" viewBox="0 0 57 57" fill="none" xmlns="http://www.w3.org/2000/svg">
<path d="M38.4536 37.9191C38.074 37.0864 37.8039 36.2053 37.6502 35.2991C37.4046 33.8773 36.8849 32.5205 36.1217 31.3086C35.3585 30.0966 34.3673 29.0541 33.2064 28.2424C32.1908 27.5341 31.0624 27.0147 29.8723 26.7079C30.7403 26.9253 31.4963 27.4721 31.9889 28.2389C32.4815 29.0056 32.6743 29.9355 32.5286 30.8423C32.2791 32.8221 32.5695 34.8342 33.3674 36.654C34.1652 38.4738 35.4391 40.0294 37.0467 41.1474C38.8852 42.425 41.0691 43.0722 43.2865 42.9964C41.1606 41.9195 39.4557 40.1284 38.4536 37.9191Z" fill="#619F0E"/>
<path d="M39.161 37.2112C38.5619 36.5285 38.0538 35.7668 37.65 34.9461C37.0121 33.6598 36.1304 32.5178 35.0569 31.5875C33.9834 30.6572 32.7397 29.9574 31.3993 29.5292C30.2271 29.1564 29.0005 28.9981 27.7752 29.0616C28.667 29.0092 29.5452 29.3055 30.2337 29.8911C30.9222 30.4767 31.3702 31.3084 31.4878 32.2195C31.8103 34.1881 32.6583 36.0257 33.9372 37.527C35.2161 39.0283 36.8756 40.1342 38.7301 40.7213C40.8508 41.3918 43.1233 41.3557 45.2228 40.618C42.8842 40.2256 40.7457 39.0238 39.161 37.2112Z" fill="white"/>
<path d="M21.9421 27.8697C21.8185 29.1266 21.909 30.3961 22.2096 31.621C21.9887 30.7307 22.1002 29.7875 22.522 28.9776C22.9437 28.1676 23.6452 27.5497 24.488 27.2456C26.3008 26.5299 27.885 25.3104 29.064 23.7231C30.2431 22.1358 30.9707 20.2429 31.1659 18.2553C31.3902 15.9819 30.9065 13.694 29.7845 11.7219C29.8638 14.1689 29.1287 16.5704 27.7008 18.5291C27.158 19.2673 26.5229 19.9285 25.8119 20.4956C24.7118 21.3924 23.7975 22.507 23.1232 23.7736C22.4489 25.0401 22.0282 26.4329 21.8861 27.8696L21.9421 27.8697Z" fill="#619F0E"/>
<path d="M24.027 29.1831C24.2996 30.4149 24.779 31.5883 25.4436 32.6506C24.9583 31.8793 24.7715 30.9488 24.9201 30.0427C25.0686 29.1366 25.5419 28.3208 26.2464 27.756C27.7426 26.4827 28.8659 24.807 29.4912 22.9157C30.1164 21.0243 30.2191 18.9915 29.7878 17.0437C29.2955 14.8155 28.1277 12.8059 26.453 11.305C27.2867 13.5981 27.3347 16.1154 26.5887 18.4404C26.3031 19.3182 25.9062 20.1533 25.4082 20.9242C24.6436 22.1351 24.1227 23.4916 23.8764 24.9133C23.63 26.335 23.6632 27.793 23.9739 29.2013L24.027 29.1831Z" fill="white"/>
<path d="M27.301 29.7762C27.2179 30.6917 26.8015 31.541 26.1352 32.1538C25.469 32.7666 24.6022 33.0976 23.7087 33.0804C21.7649 33.109 19.8671 33.6932 18.2274 34.7677C16.5877 35.8421 15.2707 37.3645 14.4236 39.1648C13.4601 41.2239 13.1573 43.5447 13.5588 45.7923C14.299 43.465 15.7885 41.467 17.7813 40.1283C18.5313 39.6285 19.3388 39.2269 20.1852 38.9326C21.5153 38.4774 22.7433 37.7527 23.7967 36.8013C24.85 35.8498 25.7075 34.691 26.3183 33.393C26.8521 32.2547 27.1884 31.0292 27.312 29.7718L27.301 29.7762Z" fill="#619F0E"/>
<path d="M29.6639 32.8996C29.2624 33.721 28.5738 34.3559 27.7364 34.6768C26.899 34.9978 25.9746 34.9812 25.1485 34.6303C23.3281 33.9284 21.3539 33.7612 19.4464 34.1472C17.5389 34.5333 15.7734 35.4575 14.3471 36.8165C12.7208 38.3731 11.617 40.4208 11.1951 42.6645C12.7084 40.7746 14.803 39.4721 17.133 38.9723C18.0083 38.788 18.9025 38.7166 19.795 38.7598C21.1949 38.8344 22.5951 38.6197 23.913 38.1285C25.2308 37.6372 26.4397 36.8794 27.4682 35.8995C28.3683 35.0395 29.1154 34.0243 29.6757 32.8996H29.6639Z" fill="white"/>
</svg>
