<svg width="686" height="639" viewBox="0 0 686 639" fill="none" xmlns="http://www.w3.org/2000/svg">
<path d="M509.847 470.947C503.63 457.689 499.205 443.661 496.688 429.235C492.665 406.6 484.152 384.998 471.652 365.704C459.15 346.409 442.914 329.811 423.899 316.889C407.265 305.613 388.782 297.344 369.288 292.459C383.505 295.921 395.889 304.626 403.957 316.833C412.026 329.039 415.184 343.844 412.798 358.28C408.711 389.799 413.467 421.834 426.536 450.805C439.604 479.777 460.47 504.544 486.802 522.342C516.916 542.682 552.688 552.985 589.008 551.78C554.188 534.634 526.261 506.119 509.847 470.947Z" fill="#61A901"/>
<path d="M521.434 459.677C511.621 448.808 503.298 436.68 496.684 423.615C486.235 403.136 471.793 384.955 454.21 370.145C436.626 355.334 416.255 344.192 394.299 337.376C375.1 331.44 355.008 328.92 334.937 329.932C349.546 329.097 363.93 333.813 375.207 343.137C386.485 352.46 393.823 365.7 395.749 380.205C401.031 411.546 414.921 440.802 435.87 464.703C456.818 488.605 483.999 506.212 514.376 515.558C549.113 526.233 586.334 525.658 620.725 513.914C582.418 507.667 547.391 488.534 521.434 459.677Z" fill="#060708"/>
<path d="M239.394 310.957C237.369 330.967 238.851 351.177 243.775 370.679C240.158 356.504 241.983 341.489 248.892 328.594C255.8 315.699 267.29 305.861 281.094 301.02C310.788 289.626 336.736 270.212 356.049 244.941C375.361 219.67 387.279 189.535 390.476 157.891C394.15 121.697 386.227 85.2735 367.851 53.8765C369.148 92.8332 357.108 131.067 333.72 162.25C324.829 174.002 314.425 184.529 302.78 193.558C284.76 207.835 269.785 225.58 258.74 245.744C247.695 265.908 240.805 288.082 238.477 310.954L239.394 310.957Z" fill="#61A901"/>
<path d="M273.545 331.865C278.008 351.476 285.861 370.158 296.748 387.07C288.798 374.79 285.738 359.976 288.172 345.551C290.606 331.126 298.358 318.137 309.896 309.146C334.404 288.874 352.803 262.197 363.046 232.085C373.287 201.974 374.969 169.612 367.905 138.601C359.841 103.126 340.712 71.133 313.28 47.2384C326.937 83.7459 327.722 123.823 315.504 160.838C310.827 174.812 304.325 188.108 296.168 200.38C283.644 219.659 275.112 241.255 271.076 263.888C267.041 286.522 267.584 309.735 272.675 332.155L273.545 331.865Z" fill="#060708"/>
<path d="M327.17 341.309C325.809 355.883 318.988 369.405 308.075 379.161C297.163 388.917 282.965 394.186 268.33 393.913C236.491 394.368 205.405 403.669 178.548 420.775C151.69 437.88 130.118 462.118 116.242 490.778C100.462 523.561 95.5017 560.508 102.079 596.292C114.202 559.24 138.599 527.431 171.242 506.118C183.525 498.162 196.752 491.767 210.616 487.082C232.403 479.836 252.516 468.298 269.771 453.151C287.024 438.004 301.069 419.554 311.075 398.889C319.818 380.767 325.326 361.257 327.35 341.238L327.17 341.309Z" fill="#61A901"/>
<path d="M365.874 391.034C359.297 404.111 348.019 414.219 334.302 419.328C320.586 424.439 305.444 424.174 291.914 418.588C262.097 407.414 229.759 404.751 198.516 410.897C167.272 417.043 138.352 431.757 114.99 453.393C88.3513 478.174 70.2721 510.775 63.3614 546.496C88.1493 516.407 122.458 495.671 160.622 487.714C174.96 484.78 189.607 483.643 204.225 484.331C227.154 485.519 250.089 482.101 271.676 474.281C293.261 466.459 313.063 454.393 329.909 438.794C344.653 425.102 356.89 408.939 366.068 391.034H365.874Z" fill="#060708"/>
</svg>
